<svg id="Capa_1" enable-background="new 0 0 512 512" height="512" viewBox="0 0 512 512" width="512" xmlns="http://www.w3.org/2000/svg"><g><path d="m50.59 62.67h339.64v434.33h-339.64z" fill="#edf7fc"/><path d="m220.41 62.67h169.82v434.33h-169.82z" fill="#c0ddff"/><path d="m35.59 47.67v464.33h369.64v-464.33zm339.64 434.33h-309.64v-404.33h309.64z" fill="#b6ecff"/><path d="m405.23 47.67v464.33h-184.82v-30h154.82v-404.33h-154.82v-30z" fill="#99bdf2"/><path d="m305.81 47.67v72.66h-170.8v-72.66h37.7c0-26.34 21.36-47.67 47.7-47.67s47.7 21.33 47.7 47.67z" fill="#febf01"/><path d="m305.81 120.33h-85.4v-120.33c26.34 0 47.7 21.33 47.7 47.67h37.7z" fill="#fe9100"/><g fill="#455da0"><path d="m114.67 186.591h157.492v30h-157.492z"/><path d="m114.67 253.834h157.492v30h-157.492z"/><path d="m114.67 321.076h157.492v30h-157.492z"/><path d="m114.67 388.319h157.492v30h-157.492z"/></g><g fill="#214070"><path d="m220.41 186.591h51.752v30h-51.752z"/><path d="m220.41 253.834h51.752v30h-51.752z"/><path d="m220.41 321.076h51.752v30h-51.752z"/><path d="m220.41 388.319h51.752v30h-51.752z"/></g><path d="m450.77 187.13v263.51c0 33.83-27.53 61.36-61.36 61.36s-61.36-27.53-61.36-61.36v-263.51z" fill="#edf7fc"/><path d="m450.77 187.13v263.51c0 33.83-27.53 61.36-61.36 61.36v-324.87z" fill="#c0ddff"/><path d="m302.41 138.19h174v65.55h-174z" fill="#b6ecff"/><path d="m389.41 138.19h87v65.55h-87z" fill="#99bdf2"/><path d="m328.05 292v158.64c0 33.83 27.53 61.36 61.36 61.36s61.36-27.53 61.36-61.36v-158.64z" fill="#fd4b49"/><path d="m389.41 292v220c33.83 0 61.36-27.53 61.36-61.36v-158.64z" fill="#e70b69"/></g></svg>